<svg viewBox="0 0 244 62" height="62" width="244" xmlns="http://www.w3.org/2000/svg">
  <defs>
    <style>
      .cls-1 {
        fill: #000000;
      }
    </style>
  </defs>
  <path transform="translate(-0.031 -0.688)" d="M239.958,38.231q-7.084,11.191-20.494,10.379-9.871-.463-16.547-9.161a28.669,28.669,0,0,1-3.89-21.569Q202.975,4.833,217.141.949q18.811-1.97,24.385,12.06T239.958,38.231ZM222.6,7.964a6.423,6.423,0,0,0-2.148-.348A8.572,8.572,0,0,0,217.9,9.124q-8.535,14.206-.987,31.136a12.29,12.29,0,0,0,1.568,1.421,13.662,13.662,0,0,0,1.974,1.247,5.837,5.837,0,0,0,4.238-2.319,32.687,32.687,0,0,0,3.89-16.119A23.6,23.6,0,0,0,222.6,7.964ZM178.36,42.29q0.637,0.58,1.306,1.276t1.48,1.624q8.592,12.93,17.476-.638a4.324,4.324,0,0,1,2.961-1.508l1.219,1.334a18.208,18.208,0,0,1-6.27,15.539q-10.917,6.784-21.656-3.769l-2.671-1.913-0.464-.174h-7.534a19.212,19.212,0,0,1-4.483,5.856q-10.915,6.784-21.656-3.769l-2.67-1.913-0.465-.174h-8.418l-1.684-.116-0.871-.928-0.058-1.8,0.116-1.1L143.99,9.124a16.147,16.147,0,0,0-7.9.464,13.042,13.042,0,0,0-1.1,1.71,14.286,14.286,0,0,0-.929,2.116L132.5,17.184a13.035,13.035,0,0,1-1.916,3.363,3.529,3.529,0,0,1-3.832-1.276q-0.233-1.623.871-16.235a5.71,5.71,0,0,1,1.161-1.45h27.984l1.219,0.406a9.764,9.764,0,0,1,.523,4.639L141.552,42.29q0.638,0.58,1.306,1.276t1.48,1.624q8.592,12.93,17.476-.638a4.148,4.148,0,0,1,2.4-1.4L180.8,9.124a16.147,16.147,0,0,0-7.9.464,13.042,13.042,0,0,0-1.1,1.71,14.183,14.183,0,0,0-.929,2.116L169.3,17.184a13.035,13.035,0,0,1-1.916,3.363,3.529,3.529,0,0,1-3.832-1.276q-0.233-1.623.871-16.235a5.71,5.71,0,0,1,1.161-1.45h27.984l1.219,0.406a9.762,9.762,0,0,1,.522,4.639ZM110.2,40.608l1.916-2.957,1.625-3.943,0.581-1.334,0.58-1.1,0.581-.58q2.844-1.74,4.7,2.261l-0.175,3.769-0.232.522v2.841a17.71,17.71,0,0,0-.174,2.609l-0.174,3.537-0.174.522-0.755.812a7.706,7.706,0,0,1-2.845.174H88.545l-1.1-.174a5.566,5.566,0,0,1-.755-2.261A4.038,4.038,0,0,1,88.139,43.8V29.012l-4.122-2.783-0.755-.406a10.834,10.834,0,0,0-1.393-.928,11.428,11.428,0,0,0-1.219-.58l-0.581-.348-1.51-.406c-0.218.019-.436,0.067-0.654,0.1q-2.3,4.393-8.112,8.134a20.114,20.114,0,0,1,1.771,1.015,19.569,19.569,0,0,1,2,1.478l1.51,1.45,1.277,1.913Q78.326,46.813,82.507,50q5.457,2.435,15.327-.638a2.7,2.7,0,0,1,1.684.58q-4.7,8.871-17.882,7.712Q66.251,56.727,66.6,38.811a4.694,4.694,0,0,0-.929-2.493l-0.232-.348a6.821,6.821,0,0,0-5.98-2.493,5.325,5.325,0,0,1-1.51-1.1,13.365,13.365,0,0,1,.174-1.913,15.112,15.112,0,0,0,5.864-5.276,22.623,22.623,0,0,0,.174-3.015V11.385l-0.174-.754-0.232-.754q-2.207-4.523-7.315-3.769A2.74,2.74,0,0,0,55.51,8.37V43.913a2.55,2.55,0,0,1,1.451,2.435l-0.929,1.334a7.448,7.448,0,0,1-2.787.174H42.854L41.577,47.1a2.5,2.5,0,0,1,1.277-3.189V4.949q-0.291-.289-0.639-0.667a5.584,5.584,0,0,1-.639-0.841q-0.233-.522.581-2.261h20.03q8.824,0.291,13.469,5.856c3.07,4.636,4.187,8.911,3.486,12.849a19.2,19.2,0,0,1,8.88,1.473q0.057-.637.087-1.421t0.029-1.594V5.065a3.259,3.259,0,0,1-1.277-1.334,3.4,3.4,0,0,1,.174-1.855l1.1-.522,1.626-.174,8.186-.058h18.055l1.162,0.406,0.58,1.1v9.741a5.65,5.65,0,0,1-.232,2.609,3.335,3.335,0,0,1-1.742.87,5.473,5.473,0,0,1-2.961-.29,4.937,4.937,0,0,0-1.277-2.087q-1.916-7.48-10.392-5.624V22.634l0.174,0.928q6.038,0,11.9-4.465l1.683-.174a2.5,2.5,0,0,1,1.1,2.2q-4.064,7.944-14.978,10.147l-0.058,9.335,0.174,0.58Q104.22,41.942,110.2,40.608ZM18.412,33.824q-2.613-.637-1.393-3.073a14,14,0,0,0,3.193-2.145A17.349,17.349,0,0,0,23,25.417a22.625,22.625,0,0,0,.174-3.015V10.748L23,9.994q-2.381-4.406-7.664-3.827a2.831,2.831,0,0,0-.987,2.319V44.319a2.658,2.658,0,0,1,1.509,2.493L15.1,47.972H0.937l-0.813-.406a2.731,2.731,0,0,1,1.335-3.247V5.007A5.625,5.625,0,0,1,.124,3.5,3.189,3.189,0,0,1,.7,1.181l22.178-.116Q42.273,2.978,37.571,23.33,33.507,33.129,18.412,33.824Z" class="cls-1" id="Prezzo"></path>
</svg>
